<?xml version="1.0" encoding="UTF-8" standalone="no"?>
<!-- Created with Inkscape (http://www.inkscape.org/) -->

<svg
   width="210mm"
   height="297mm"
   viewBox="0 0 210 297"
   version="1.1"
   id="svg33160"
   inkscape:version="1.2.2 (732a01da63, 2022-12-09)"
   sodipodi:docname="hedge.svg"
   inkscape:export-filename="hedge.png"
   inkscape:export-xdpi="100"
   inkscape:export-ydpi="100"
   xmlns:inkscape="http://www.inkscape.org/namespaces/inkscape"
   xmlns:sodipodi="http://sodipodi.sourceforge.net/DTD/sodipodi-0.dtd"
   xmlns="http://www.w3.org/2000/svg"
   xmlns:svg="http://www.w3.org/2000/svg">
  <sodipodi:namedview
     id="namedview33162"
     pagecolor="#ffffff"
     bordercolor="#666666"
     borderopacity="1.0"
     inkscape:showpageshadow="2"
     inkscape:pageopacity="0.0"
     inkscape:pagecheckerboard="0"
     inkscape:deskcolor="#d1d1d1"
     inkscape:document-units="mm"
     showgrid="false"
     inkscape:zoom="0.78127806"
     inkscape:cx="568.29959"
     inkscape:cy="331.50809"
     inkscape:window-width="1920"
     inkscape:window-height="1057"
     inkscape:window-x="-8"
     inkscape:window-y="-8"
     inkscape:window-maximized="1"
     inkscape:current-layer="layer1" />
  <defs
     id="defs33157">
    <inkscape:path-effect
       effect="bspline"
       id="path-effect35264"
       is_visible="true"
       lpeversion="1"
       weight="33.333333"
       steps="2"
       helper_size="0"
       apply_no_weight="true"
       apply_with_weight="true"
       only_selected="false" />
    <inkscape:path-effect
       effect="bspline"
       id="path-effect35264-5"
       is_visible="true"
       lpeversion="1"
       weight="33.333333"
       steps="2"
       helper_size="0"
       apply_no_weight="true"
       apply_with_weight="true"
       only_selected="false" />
  </defs>
  <g
     inkscape:label="Layer 1"
     inkscape:groupmode="layer"
     id="layer1">
    <path
       style="fill:#376c04;fill-opacity:1;fill-rule:evenodd;stroke:#000000;stroke-width:1.48166;stroke-linecap:butt;stroke-linejoin:miter;stroke-dasharray:none;stroke-opacity:1"
       d="m 118.63429,80.027862 c -2.32405,1.856353 -4.52109,2.886093 -7.35408,3.422842 -2.83299,0.536749 -6.30206,0.580393 -9.26995,-0.834563 -2.967888,-1.414955 -5.43447,-4.288811 -6.396819,-4.3849 -0.96235,-0.09609 -0.420317,2.585403 -2.873328,4.205617 -2.453012,1.620214 -7.9014,2.179233 -12.380244,1.051611 -4.478844,-1.127623 -7.988081,-3.942155 -10.323268,-4.057847 -2.335186,-0.115692 -3.495639,2.467427 -6.450068,4.117528 -2.954429,1.650102 -7.702862,2.366927 -11.679754,2.064602 -3.976891,-0.302325 -7.182012,-1.623944 -9.077638,-3.193894 -1.895627,-1.56995 -2.481172,-3.387998 -3.402009,-2.873247 -0.920838,0.514752 -2.176659,3.362741 -5.589804,4.650001 -3.413145,1.28726 -8.983341,1.013855 -11.624404,-1.864413 -2.641062,-2.878267 -2.351655,-8.361171 -1.454956,-11.393978 0.896698,-3.032808 2.400374,-3.61523 1.767276,-4.533558 -0.633098,-0.918328 -3.40301,-2.172772 -3.819676,-5.723905 -0.416667,-3.551133 1.520164,-9.398164 3.803344,-12.048526 2.28318,-2.650362 4.911889,-2.103335 7.359499,-1.132166 2.447609,0.971169 4.713953,2.366223 5.853809,1.678688 1.139856,-0.687534 1.153432,-3.457764 4.049148,-4.999817 2.895717,-1.542053 8.672968,-1.855663 12.550874,-0.427446 3.877907,1.428218 5.855994,4.597104 7.102619,5.022754 1.246625,0.42565 1.761041,-1.89269 3.818887,-3.611845 2.057846,-1.719156 5.658727,-2.839192 10.486512,-2.883909 4.827784,-0.04472 10.882043,0.985723 14.073772,3.113026 3.191729,2.127303 3.521179,5.351176 5.051474,5.318896 1.530296,-0.03228 4.260924,-3.320156 7.424234,-5.198503 3.16332,-1.878348 6.7586,-2.346788 9.72408,-0.659347 2.96548,1.687441 5.30127,5.530429 9.035,5.21188 3.73372,-0.318549 8.8651,-4.797959 13.76723,-5.032383 4.90213,-0.234423 9.57424,3.775912 13.04302,4.936704 3.46879,1.160793 5.73441,-0.527687 6.67815,-2.050084 0.94374,-1.522397 0.56559,-2.879048 3.26539,-3.71434 2.69981,-0.835292 8.47706,-1.148903 12.55286,0.118239 4.07579,1.267143 6.4495,4.113989 7.69611,4.53969 1.2466,0.425701 1.36532,-1.57053 3.22534,-3.128696 1.86002,-1.558166 5.4609,-2.678201 10.17674,-3.178508 4.71585,-0.500306 10.54626,-0.380952 12.80381,1.599754 2.25756,1.980705 0.94267,5.82234 2.30512,6.658943 1.36245,0.836602 5.40176,-1.331678 7.97411,-1.125788 2.57235,0.205891 3.67737,2.785504 4.185,5.982444 0.50763,3.196939 0.41807,7.011043 -0.84086,9.148512 -1.25892,2.137468 -3.68723,2.598327 -3.65705,3.267451 0.0302,0.669124 2.51879,1.546205 3.21826,3.923461 0.69946,2.377256 -0.38954,6.25358 -1.75288,8.81021 -1.36335,2.55663 -2.99987,3.791518 -6.40269,4.689903 -3.40282,0.898385 -8.57092,1.459766 -12.8973,0.123251 -4.32637,-1.336515 -7.8101,-4.571126 -9.86547,-4.957277 -2.05536,-0.386151 -2.68165,2.076178 -5.36896,3.665831 -2.68731,1.589654 -7.43574,2.306478 -11.41263,2.004156 -3.97689,-0.302323 -7.18201,-1.62394 -8.68595,-3.965988 -1.50393,-2.342047 -1.3061,-5.703762 -4.25414,-5.031913 -2.94803,0.671849 -9.04183,5.37798 -14.48272,7.059169 -5.44088,1.681188 -10.22898,0.337112 -12.52842,-2.100516 -2.29945,-2.437629 -2.10983,-5.968643 -3.24059,-6.392889 -1.13075,-0.424246 -3.58195,2.25873 -5.90601,4.115083 z"
       id="path35262-9"
       sodipodi:nodetypes="sssssscccccccccccccccccccccsscccccccccccccccccccccccsssss"
       inkscape:original-d="m 118.50708,80.854563 c -2.1967,1.02996 -4.39373,2.059704 -6.59116,3.08925 -3.4687,0.0439 -6.93777,0.08752 -10.40722,0.130933 -2.4663,-2.873584 -4.932878,-5.747443 -7.399738,-8.621559 0.54241,2.681909 1.084445,5.3634 1.626186,8.0449 -5.448022,0.55923 -10.896409,1.118254 -16.345172,1.67706 -3.508992,-2.81425 -7.018226,-5.628785 -10.527918,-8.443759 -1.160192,2.583745 -2.320648,5.166862 -3.481676,7.750063 -4.748239,0.717061 -9.496672,1.433886 -14.245567,2.150514 -3.204949,-1.321485 -6.410067,-2.64311 -9.615758,-3.965018 -0.585317,-1.818112 -1.170863,-3.636159 -1.756845,-5.454792 -1.25547,2.848405 -2.511292,5.696394 -3.767539,8.544137 -5.570507,-0.273068 -11.140704,-0.546466 -16.712227,-0.820297 0.289805,-5.483042 0.579215,-10.965946 0.86824,-16.449041 1.504098,-0.582235 3.007775,-1.164655 4.511101,-1.747297 -2.769657,-1.254286 -5.539568,-2.508732 -8.309912,-3.763413 1.937472,-5.847471 3.874303,-11.694502 5.810964,-17.542514 2.629193,0.547429 5.257902,1.094456 7.88629,1.641114 2.266824,1.3955 4.533168,2.790553 6.799371,4.185371 0.01387,-2.769994 0.02752,-5.540223 0.04073,-8.310687 5.777867,-0.313414 11.555118,-0.627025 17.332116,-0.940852 1.9789,3.169972 3.956987,6.338858 5.935651,9.508885 0.514922,-2.31857 1.029338,-4.63691 1.543277,-6.955144 3.601413,-1.119874 7.202293,-2.239914 10.802893,-3.360187 6.054853,1.030687 12.109112,2.061126 18.163108,3.091374 0.329816,3.224182 0.659268,6.448055 0.988392,9.672015 2.731542,-3.288147 5.46217,-6.576024 8.192658,-9.864558 3.595765,-0.468245 7.191045,-0.936685 10.786005,-1.405341 2.33607,3.843224 4.67186,7.686214 7.00738,11.528971 5.13217,-4.479404 10.26356,-8.958809 15.39485,-13.438838 4.67259,4.010824 9.34469,8.021161 14.01659,12.03125 2.26602,-1.68813 4.53165,-3.376599 6.79689,-5.065459 -0.37779,-1.356441 -0.75595,-2.713091 -1.13447,-4.069953 5.77786,-0.313414 11.55511,-0.627025 17.33212,-0.940853 2.37461,2.847853 4.74832,5.694696 7.12277,8.542516 0.11905,-1.996365 0.23784,-3.992591 0.35615,-5.988774 3.60142,-1.119875 7.2023,-2.239914 10.80291,-3.360187 5.83098,0.119735 11.66139,0.239089 17.49155,0.358069 -1.31458,3.842219 -2.62948,7.683851 -3.94487,11.52547 4.04008,-2.168124 8.07939,-4.336398 12.11861,-6.505212 1.10541,2.580073 2.21043,5.159684 3.3151,7.738971 -0.0892,3.814675 -0.17876,7.628779 -0.2687,11.442852 -2.42821,0.461288 -4.85652,0.922149 -7.28543,1.382671 2.48912,0.877512 4.97772,1.754591 7.46608,2.631341 -1.0889,3.877668 -2.17792,7.753988 -3.26777,11.631673 -1.63695,1.235875 -3.27347,2.470762 -4.91091,3.705686 -5.16848,0.56184 -10.33658,1.123218 -15.50573,1.684296 -3.48365,-3.234503 -6.96739,-6.46911 -10.45168,-9.704274 -0.62599,2.462952 -1.25228,4.925281 -1.87905,7.387677 -4.74824,0.717061 -9.49667,1.433886 -14.24557,2.150514 -3.20494,-1.321484 -6.41006,-2.64311 -9.61577,-3.965018 0.19827,-3.362204 0.39608,-6.72392 0.59357,-10.086498 -6.09363,4.706673 -12.18742,9.412812 -18.28182,14.118726 -4.78773,-1.343869 -9.57583,-2.687944 -14.3643,-4.032228 0.19002,-3.531048 0.37962,-7.062063 0.56886,-10.593492 -2.45075,2.683275 -4.90195,5.366249 -7.35361,8.048946 z"
       inkscape:path-effect="#path-effect35264-5" />
  </g>
</svg>
